<svg width="92" height="32" fill="none" xmlns="http://www.w3.org/2000/svg"><rect width="92" height="32" rx="16" fill="#fff" fill-opacity=".2"/><path d="M22.04 20.88l6.92-5.38-6.92-5.37v2.91H16v4.92h6.04v2.92z" fill="#fff"/><path d="M34 6H21a2 2 0 00-2 2v2h2V8h13v15H21v-2h-2v2a2 2 0 002 2h13a2 2 0 002-2V8a2 2 0 00-2-2zM45.012 21v-9.953h3.41c1.127 0 1.983.226 2.571.677.588.45.882 1.123.882 2.016 0 .456-.123.866-.37 1.23-.245.365-.605.648-1.08.848.539.146.953.422 1.245.827.296.402.444.885.444 1.45 0 .934-.3 1.652-.902 2.153-.597.501-1.454.752-2.57.752h-3.63zm1.73-4.491v3.11h1.92c.542 0 .966-.134 1.272-.403.305-.27.458-.643.458-1.121 0-1.035-.529-1.563-1.586-1.586H46.74zm0-1.272h1.695c.537 0 .957-.12 1.257-.362.306-.246.458-.592.458-1.04 0-.491-.14-.847-.424-1.066-.278-.218-.713-.328-1.305-.328H46.74v2.796zm9.597.8l1.408-2.433h1.846l-2.263 3.643L59.668 21h-1.832l-1.477-2.53L54.89 21h-1.845l2.338-3.753-2.256-3.643h1.832l1.38 2.433zm3.8 1.196c0-.724.144-1.376.431-1.955.287-.583.69-1.03 1.21-1.34.52-.314 1.117-.471 1.791-.471.998 0 1.807.321 2.427.964.624.642.962 1.495 1.012 2.556l.007.39c0 .73-.142 1.38-.424 1.955a3.08 3.08 0 01-1.203 1.333c-.52.315-1.121.472-1.805.472-1.044 0-1.88-.347-2.509-1.04-.624-.697-.936-1.624-.936-2.782v-.082zm1.662.144c0 .761.157 1.358.471 1.791.315.428.752.643 1.313.643.56 0 .996-.22 1.306-.657.314-.437.471-1.078.471-1.92 0-.748-.161-1.34-.485-1.778-.32-.437-.754-.656-1.306-.656-.542 0-.973.216-1.292.65-.319.428-.478 1.07-.478 1.927zm6.159 2.297c.46-.515.768-1.003.923-1.463.16-.465.255-1.057.287-1.777l.096-2.83h5.133v6.07h1.026V23.2H73.77V21h-4.745v2.201h-1.681l.007-3.527h.608zm1.948 0h2.837v-4.642H70.88l-.048 1.415c-.064 1.358-.371 2.434-.923 3.227z" fill="#fff"/></svg>