<svg width="100" height="32" fill="none" xmlns="http://www.w3.org/2000/svg"><rect width="100" height="32" rx="16" fill="#fff" fill-opacity=".2"/><path d="M53.887 21h-1.723v-8.559h-4.382V21H46.06v-9.953h7.827V21zm4.518-2.379l1.504-5.017h1.77L58.74 22.12c-.45 1.244-1.217 1.866-2.297 1.866-.241 0-.508-.04-.8-.123V22.58l.315.02c.42 0 .734-.077.943-.232.215-.15.383-.405.506-.765l.24-.636-2.598-7.363h1.79l1.566 5.018zm7.178 1.19c.415 0 .759-.121 1.032-.363.274-.241.42-.54.438-.895h1.565c-.018.46-.162.89-.43 1.292a2.836 2.836 0 01-1.094.943 3.26 3.26 0 01-1.49.349c-1.035 0-1.855-.335-2.461-1.005-.607-.67-.91-1.595-.91-2.776v-.17c0-1.126.301-2.026.903-2.7.601-.68 1.422-1.02 2.46-1.02.88 0 1.596.258 2.147.773.556.51.848 1.183.875 2.017h-1.565c-.019-.424-.164-.773-.438-1.046-.269-.274-.613-.41-1.032-.41-.538 0-.953.196-1.244.588-.292.387-.44.977-.444 1.77v.267c0 .802.143 1.401.43 1.798.292.392.711.588 1.258.588zm10.11-4.888h-2.4V21h-1.66v-6.077H69.26v-1.32h6.432v1.32zm.595 2.31c0-.724.144-1.376.43-1.955a3.12 3.12 0 011.21-1.34c.52-.314 1.117-.471 1.792-.471.998 0 1.807.321 2.427.964.624.642.961 1.495 1.011 2.556l.007.39c0 .73-.141 1.38-.424 1.955a3.08 3.08 0 01-1.203 1.333c-.52.315-1.121.472-1.805.472-1.043 0-1.88-.347-2.508-1.04-.625-.697-.937-1.624-.937-2.782v-.082zm1.661.144c0 .761.157 1.358.472 1.791.314.428.752.643 1.312.643s.996-.22 1.306-.657c.314-.437.472-1.078.472-1.92 0-.748-.162-1.34-.486-1.778-.319-.437-.754-.656-1.305-.656-.543 0-.973.216-1.292.65-.32.428-.479 1.07-.479 1.927zM21.703 8l-.241-2H16v2h3.668l1.512 13h14.107L37 8H21.703zm11.8 11h-10.53l-1.008-9h12.727l-1.189 9zM23.034 26a2.008 2.008 0 002.015-2c0-1.105-.902-2-2.015-2a2.008 2.008 0 00-2.016 2c0 1.105.902 2 2.016 2zM32.103 26a2.008 2.008 0 002.015-2c0-1.105-.902-2-2.015-2a2.008 2.008 0 00-2.016 2c0 1.105.903 2 2.016 2z" fill="#fff"/></svg>